<svg width="366" height="368" xmlns="http://www.w3.org/2000/svg"><metadata id="metadata8">image/svg+xml</metadata><defs><clipPath clipPathUnits="userSpaceOnUse" id="clipPath18"><path d="m201.246185 797.659912c-0.664001-0.000977-1.325989-0.01001-1.988007-0.026978l0 0c-2.651001-0.064026-5.299988-0.244995-7.937012-0.541992l0 0c-1.977997-0.222046-3.950989-0.51001-5.913971-0.864014l0 0c-4.57901-0.824036-9.108002-2.002014-13.540009-3.536011l0 0c-0.63501-0.218994-1.265015-0.445984-1.894012-0.679016l0 0c-8.181-3.036987-16.01001-7.299988-23.203003-12.786011l0 0c-25.401001 19.372986-58.718994 23.476013-87.471008 12.307007l0 0c-0.156006-0.060974-0.311981-0.122986-0.46698-0.184021l0 0c-11.161015-4.406982-21.62299-11.120972-30.648987-20.146973l0 0c-32.364074-32.363953-35.035064-83.171936-8.023987-118.586975l0 0c-8.863068-11.620972-14.529998-24.898987-17.001983-38.638l0 0c-0.117004-0.653992-0.227051-1.30896-0.331055-1.966003l0 0c-1.546997-9.843994-1.463989-19.893005 0.25-29.714966l0 0c0.114014-0.655029 0.235046-1.309021 0.364014-1.960999l0 0c3.346985-16.967041 11.595001-33.158997 24.743011-46.30603l0 0 0-0.002014c3.034973-3.032959 6.231014-5.805969 9.56097-8.317993l0 0c0.555023-0.419006 1.114014-0.830994 1.676025-1.234985l0 0c8.435974-6.063049 17.682987-10.495056 27.302982-13.296082l0 0c7.054016-2.054993 14.311005-3.230957 21.596008-3.531982l0 0c1.324005-0.054016 2.649994-0.080017 3.975006-0.075989l0 0c0.662994 0.002014 1.325989 0.010986 1.988007 0.026978l0 0c2.651001 0.065002 5.298981 0.244995 7.936981 0.541992l0 0c1.977997 0.223022 3.950012 0.511047 5.912994 0.863037l0 0c4.580017 0.823975 9.109009 2.002991 13.541016 3.537964l0 0c0.634003 0.218018 1.264984 0.444031 1.894989 0.67804l0 0c8.179993 3.036987 16.007996 7.299988 23.201996 12.787048l0 0c25.400024-19.374084 58.718018-23.476074 87.471008-12.308044l0 0c0.157043 0.060974 0.310974 0.122986 0.467957 0.18396l0 0c11.160034 4.407043 21.621002 11.121094 30.648071 20.146057l0 0 0 0.002014c32.363953 32.364014 35.034973 83.171021 8.023987 118.585999l0 0c8.862976 11.621033 14.529968 24.898071 17.002014 38.639038l0 0c0.116943 0.653992 0.227966 1.309021 0.329956 1.965027l0 0c1.548035 9.843994 1.465027 19.893982-0.248962 29.714966l0 0c-0.114014 0.655029-0.235046 1.308044-0.364014 1.960999l0 0c-3.348022 16.968018-11.596008 33.158936-24.742981 46.306946l0 0c-3.035034 3.033997-6.230042 5.807007-9.56105 8.319031l0 0c-0.55603 0.419983-1.114014 0.830994-1.676025 1.234985l0 0c-8.436935 6.062012-17.681992 10.494995-27.302963 13.296021l0 0c-7.054016 2.053955-14.309998 3.231995-21.596008 3.531006l0 0c-1.240967 0.052002-2.484985 0.076965-3.72699 0.076965l0 0c-0.082977 0-0.164978 0-0.247986 0m-22.676025-64.278931c23.221008 23.251953 41.937012 42.171936 64.914978 22.700928l0 0c0.410034-0.354004 0.822021-0.704956 1.225037-1.070984l0 0c0.142029-0.127014 0.283997-0.262024 0.424988-0.393005l0 0c0.627991-0.580017 1.25-1.167969 1.859009-1.778015l0 0c0.72998-0.729004 1.433945-1.474976 2.120956-2.22998l0 0c0.210999-0.234009 0.413025-0.466003 0.61499-0.697998l0 0c0.234009-0.265015 0.458984-0.534973 0.689026-0.802979l0 0c19.598038-23.394958-0.580017-42.388977-24.463974-66.274048l0 0c-21.97699-21.97699-39.815002-40.807983-60.751007-28.406982l0 0c8.536011 11.991028 13.319 24.738037 14.985992 32.93103l0 0 -0.010986-0.002014c3.423004 15.179016 2.881989 31.069031-1.609009 46.024048m-135.256016 15.959961c0.35202 0.409973 0.702026 0.820984 1.067017 1.222961l0 0c0.122009 0.13501 0.251984 0.270996 0.376984 0.406006l0 0c0.582001 0.630981 1.174011 1.257996 1.787018 1.869995l0 0c0.730011 0.72998 1.475006 1.432983 2.230011 2.119995l0 0c0.232971 0.210999 0.465973 0.411987 0.697998 0.616028l0 0c0.264984 0.234009 0.534973 0.459961 0.802002 0.687988l0 0c23.396 19.598022 42.389988-0.578979 66.273991-24.462952l0 0c21.976013-21.976013 40.790009-39.815002 28.39502-60.748047l0 0c-11.987 8.531006-24.72702 13.315063-32.917999 14.982056l0 0c0.000977-0.004028 0.001984-0.008057 0.002991-0.010986l0 0c-15.181 3.422974-31.070007 2.881958-46.027008-1.606079l0 0c-23.255009 23.225037-42.174988 41.94104-22.687992 64.923035m6.740997-200.192993c-0.411011 0.354004-0.822998 0.704956-1.226013 1.070984l0 0c-0.140991 0.127014-0.28299 0.263-0.423981 0.393005l0 0c-0.628021 0.580017-1.25 1.169006-1.860016 1.778015l0 0c-0.729004 0.72998-1.432983 1.473999-2.119995 2.229004l0 0c-0.209991 0.233948-0.411987 0.46698-0.61499 0.699951l0 0c-0.234009 0.264038-0.460022 0.533997-0.690002 0.802002l0 0c-19.597012 23.39502 0.579987 42.389038 24.463993 66.274048l0 0c21.977997 21.97699 39.81601 40.807983 60.752014 28.406006l0 0c-8.536011-11.989014-13.318024-24.737-14.986023-32.930054l0 0c0.004028 0.001038 0.008026 0.002014 0.012024 0.003052l0 0c-3.425018-15.179993-2.882996-31.069031 1.608002-46.025024l0 0c-16.458008-16.479004-30.657013-30.78302-45.709015-30.785034l0 0c-6.186005-0.000977-12.514008 2.413025-19.205997 8.084045m126.935978 24.281982c-21.975983 21.974976-40.789978 39.812988-28.393982 60.747009l0 0c11.987-8.531006 24.72699-13.315002 32.916992-14.981995l0 0c-0.000977 0.003967-0.001984 0.007996-0.002991 0.010986l0 0c15.181-3.424011 31.069977-2.882996 46.027008 1.606018l0 0c23.25499-23.225037 42.174988-41.94104 22.68895-64.924011l0 0c-0.352966-0.40802-0.703003-0.820007-1.067993-1.221985l0 0c-0.122009-0.13501-0.252014-0.270996-0.375977-0.407043l0 0c-0.583008-0.630981-1.174973-1.255981-1.788986-1.868958l0 0c-0.729004-0.730042-1.473999-1.433044-2.229004-2.119995l0 0c-0.233032-0.210999-0.466003-0.413025-0.697998-0.615051l0 0c-0.265991-0.234985-0.536011-0.459961-0.802979-0.688965l0 0c-6.609985-5.536987-12.870056-7.898987-18.987061-7.898987l0 0c-15.532959-0.001038-30.149963 15.225952-47.28595 32.362976" id="path20"/></clipPath><clipPath clipPathUnits="userSpaceOnUse" id="clipPath38"><path d="m-253.229858 1001.974915l799.999939 0 0-800.000092 -799.999939 0 0 800.000092z" id="path40"/></clipPath><clipPath clipPathUnits="userSpaceOnUse" id="clipPath46"><path d="m111.95816 638.965942l36.638 0 0-36.177002 -36.638 0 0 36.177002z" id="path48"/></clipPath><clipPath clipPathUnits="userSpaceOnUse" id="clipPath50"><path d="m148.596161 634.176941l0 0c0 0-8.350006-11.121033-0.855988-25.963989 0 0-10.77301-13.343018-35.782013 1.828979 0 0 0.536987 5.713013 3.113007 14.008972 4.446991 14.321045 21.932983 19.638 33.524994 10.126038" id="path52"/></clipPath><clipPath clipPathUnits="userSpaceOnUse" id="clipPath54"><path d="m-32768 32767l65535 0 0-65535 -65535 0 0 65535z" id="path56"/></clipPath><mask maskUnits="userSpaceOnUse" x="0" y="0" width="1" height="1" id="mask64"><g id="g66"><g clip-path="url(#clipPath54)" id="g68"><g id="g70"><g id="g72"><path fill="url(#linearGradient58)" d="m-32768 32767l65535 0 0-65535 -65535 0 0 65535z" id="path74"/></g></g></g></g></mask><clipPath clipPathUnits="userSpaceOnUse" id="clipPath104"><path d="m144.944183 702.439941l36.638 0 0-36.174988 -36.638 0 0 36.174988z" id="path106"/></clipPath><clipPath clipPathUnits="userSpaceOnUse" id="clipPath108"><path d="m144.944183 671.053955l0 0c0 0 8.350006 11.119995 0.855988 25.963013 0 0 10.774017 13.343994 35.782013-1.828979 0 0-0.536987-5.713013-3.113007-14.009033 -4.445984-14.321045-21.932007-19.638-33.524994-10.125" id="path110"/></clipPath><mask maskUnits="userSpaceOnUse" x="0" y="0" width="1" height="1" id="mask122"><g id="g124"><g id="g126"><g id="g128"><g id="g130"><path fill="url(#linearGradient116)" d="m-32768 32767l65535 0 0-65535 -65535 0 0 65535z" id="path132"/></g></g></g></g></mask><clipPath clipPathUnits="userSpaceOnUse" id="clipPath162"><path d="m79.11618 571.705933l67.653992 0 0-62.739075 -67.653992 0 0 62.739075z" id="path164"/></clipPath><clipPath clipPathUnits="userSpaceOnUse" id="clipPath166"><path d="m146.770172 526.003906c-3.220001 2.450989-6.397003 5.083008-9.338013 8.025024 -10.899994 10.89801-18.431 23.888-22.60498 37.677002 -1.375-1.377014-12.503021-12.496033-16.386993-15.79303 -4.141998-3.515991-10.949005-10.026001-19.324005-12.894958l28.812988-34.051086c0 0 19.359009 2.372986 38.841003 17.037048" id="path168"/></clipPath><mask maskUnits="userSpaceOnUse" x="0" y="0" width="1" height="1" id="mask180"><g id="g182"><g id="g184"><g id="g186"><g id="g188"><path fill="url(#linearGradient174)" d="m-32768 32767l65535 0 0-65535 -65535 0 0 65535z" id="path190"/></g></g></g></g></mask><clipPath clipPathUnits="userSpaceOnUse" id="clipPath220"><path d="m227.679169 652.614929l62.737976 0 0-67.653992 -62.737976 0 0 67.653992z" id="path222"/></clipPath><clipPath clipPathUnits="userSpaceOnUse" id="clipPath224"><path d="m273.381195 652.614929c-2.452026-3.219971-5.083008-6.396973-8.023987-9.338013 -10.90004-10.898987-23.889038-18.430969-37.67804-22.60498 1.377014-1.375 12.496033-12.502991 15.79303-16.385986 3.516968-4.143005 10.025986-10.950012 12.894928-19.325012l34.050079 28.812988c0 0-2.372009 19.359009-17.036011 38.841003" id="path226"/></clipPath><mask maskUnits="userSpaceOnUse" x="0" y="0" width="1" height="1" id="mask238"><g id="g240"><g id="g242"><g id="g244"><g id="g246"><path fill="url(#linearGradient232)" d="m-32768 32767l65535 0 0-65535 -65535 0 0 65535z" id="path248"/></g></g></g></g></mask><clipPath clipPathUnits="userSpaceOnUse" id="clipPath278"><path d="m146.770172 796.262939l67.653992 0 0-62.738953 -67.653992 0 0 62.738953z" id="path280"/></clipPath><clipPath clipPathUnits="userSpaceOnUse" id="clipPath282"><path d="m146.770172 779.225891c3.220001-2.452026 6.397003-5.083008 9.338013-8.023987 10.898987-10.898987 18.431976-23.889038 22.603973-37.677979 1.376007 1.377014 12.504028 12.495972 16.388 15.792969 4.141998 3.517029 10.948029 10.026001 19.324005 12.89502l-28.812988 34.050964c0 0-19.360016-2.372986-38.841003-17.036987" id="path284"/></clipPath><mask maskUnits="userSpaceOnUse" x="0" y="0" width="1" height="1" id="mask296"><g id="g298"><g id="g300"><g id="g302"><g id="g304"><path fill="url(#linearGradient290)" d="m-32768 32767l65535 0 0-65535 -65535 0 0 65535z" id="path306"/></g></g></g></g></mask><clipPath clipPathUnits="userSpaceOnUse" id="clipPath336"><path d="m3.122193 720.268982l62.738983 0 0-67.654053 -62.738983 0 0 67.654053z" id="path338"/></clipPath><clipPath clipPathUnits="userSpaceOnUse" id="clipPath340"><path d="m20.15921 652.614929c2.451965 3.220032 5.083008 6.397034 8.023987 9.338989 10.898983 10.899048 23.888973 18.430054 37.677979 22.604004 -1.376984 1.375-12.496006 12.503052-15.793003 16.387024 -3.516998 4.142029-10.026001 10.949036-12.894989 19.324036l-34.050991-28.814026c0 0 2.372986-19.357971 17.036957-38.840027" id="path342"/></clipPath><mask maskUnits="userSpaceOnUse" x="0" y="0" width="1" height="1" id="mask354"><g id="g356"><g id="g358"><g id="g360"><g id="g362"><path fill="url(#linearGradient348)" d="m-32768 32767l65535 0 0-65535 -65535 0 0 65535z" id="path364"/></g></g></g></g></mask><linearGradient x1="0.000005" y1="0.500005" x2="1.000007" y2="0.500005" spreadMethod="pad" id="linearGradient26"><stop stop-color="#009444" offset="0" id="stop28"/><stop stop-color="#8dc63f" offset="1" id="stop30"/></linearGradient><linearGradient x1="0" y1="0" x2="1" y2="0" gradientUnits="userSpaceOnUse" gradientTransform="matrix(-9.5913773,-35.795509,-35.795509,9.5913773,390.75391,437.13281)" spreadMethod="pad" id="linearGradient58"><stop stop-color="#ffffff" offset="0" id="stop60"/><stop stop-opacity="0" stop-color="#ffffff" offset="1" id="stop62"/></linearGradient><linearGradient x1="0.697836" y1="1.003887" x2="0.436039" y2="0.014505" spreadMethod="pad" id="linearGradient76"><stop stop-color="#276588" offset="0" id="stop78"/><stop stop-color="#27cde1" offset="1" id="stop80"/></linearGradient><linearGradient x1="0" y1="0" x2="1" y2="0" gradientUnits="userSpaceOnUse" gradientTransform="matrix(9.5911245,35.794567,35.794567,-9.5911245,409.24609,464.14746)" spreadMethod="pad" id="linearGradient116"><stop stop-color="#ffffff" offset="0" id="stop118"/><stop stop-opacity="0" stop-color="#ffffff" offset="1" id="stop120"/></linearGradient><linearGradient x1="0.302164" y1="-0.003914" x2="0.563954" y2="0.985442" spreadMethod="pad" id="linearGradient134"><stop stop-color="#276588" offset="0" id="stop136"/><stop stop-color="#27cde1" offset="1" id="stop138"/></linearGradient><linearGradient x1="0" y1="0" x2="1" y2="0" gradientUnits="userSpaceOnUse" gradientTransform="matrix(-34.817768,-34.817768,-34.817768,34.817768,385.71191,352.07617)" spreadMethod="pad" id="linearGradient174"><stop stop-color="#ffffff" offset="0" id="stop176"/><stop stop-opacity="0" stop-color="#ffffff" offset="1" id="stop178"/></linearGradient><linearGradient x1="0.788801" y1="0.718604" x2="0.274144" y2="0.163636" spreadMethod="pad" id="linearGradient192"><stop stop-color="#276588" offset="0" id="stop194"/><stop stop-color="#27cde1" offset="1" id="stop196"/></linearGradient><linearGradient x1="0" y1="0" x2="1" y2="0" gradientUnits="userSpaceOnUse" gradientTransform="matrix(34.817768,-34.817768,-34.817768,-34.817768,498.56445,436.35254)" spreadMethod="pad" id="linearGradient232"><stop stop-color="#ffffff" offset="0" id="stop234"/><stop stop-opacity="0" stop-color="#ffffff" offset="1" id="stop236"/></linearGradient><linearGradient x1="0.281396" y1="0.788814" x2="0.836364" y2="0.274186" spreadMethod="pad" id="linearGradient250"><stop stop-color="#276588" offset="0" id="stop252"/><stop stop-color="#27cde1" offset="1" id="stop254"/></linearGradient><linearGradient x1="0" y1="0" x2="1" y2="0" gradientUnits="userSpaceOnUse" gradientTransform="matrix(34.818459,34.818459,34.818459,-34.818459,414.28809,549.2041)" spreadMethod="pad" id="linearGradient290"><stop stop-color="#ffffff" offset="0" id="stop292"/><stop stop-opacity="0" stop-color="#ffffff" offset="1" id="stop294"/></linearGradient><linearGradient x1="0.211199" y1="0.28138" x2="0.725866" y2="0.83636" spreadMethod="pad" id="linearGradient308"><stop stop-color="#276588" offset="0" id="stop310"/><stop stop-color="#27cde1" offset="1" id="stop312"/></linearGradient><linearGradient x1="0" y1="0" x2="1" y2="0" gradientUnits="userSpaceOnUse" gradientTransform="matrix(-34.818459,34.818459,34.818459,34.818459,301.43604,464.92773)" spreadMethod="pad" id="linearGradient348"><stop stop-color="#ffffff" offset="0" id="stop350"/><stop stop-opacity="0" stop-color="#ffffff" offset="1" id="stop352"/></linearGradient><linearGradient x1="0.718612" y1="0.211184" x2="0.163632" y2="0.725852" spreadMethod="pad" id="linearGradient366"><stop stop-color="#276588" offset="0" id="stop368"/><stop stop-color="#27cde1" offset="1" id="stop370"/></linearGradient></defs><g><title>background</title><rect fill="none" id="canvas_background" height="370" width="368" y="-1" x="-1"/></g><g><title>Layer 1</title><g id="g10" transform="matrix(1.25, 0, 0, -1.25, 0, 1000)"><path fill="#ffffff" fill-rule="nonzero" d="m-253.229858 201.974823l799.999939 0 0 800.000092 -799.999939 0 0-800.000092z" id="path12"/><g id="g14"><g id="g16" clip-path="url(#clipPath18)"><g id="g22"><g id="g24"><path fill="url(#linearGradient26)" d="m201.246185 797.659912c-0.664001-0.000977-1.325989-0.01001-1.988007-0.026978l0 0c-2.651001-0.064026-5.299988-0.244995-7.937012-0.541992l0 0c-1.977997-0.222046-3.950989-0.51001-5.913971-0.864014l0 0c-4.57901-0.824036-9.108002-2.002014-13.540009-3.536011l0 0c-0.63501-0.218994-1.265015-0.445984-1.894012-0.679016l0 0c-8.181-3.036987-16.01001-7.299988-23.203003-12.786011l0 0c-25.401001 19.372986-58.718994 23.476013-87.471008 12.307007l0 0c-0.156006-0.060974-0.311981-0.122986-0.46698-0.184021l0 0c-11.161015-4.406982-21.62299-11.120972-30.648987-20.146973l0 0c-32.364074-32.363953-35.035064-83.171936-8.023987-118.586975l0 0c-8.863068-11.620972-14.529998-24.898987-17.001983-38.638l0 0c-0.117004-0.653992-0.227051-1.30896-0.331055-1.966003l0 0c-1.546997-9.843994-1.463989-19.893005 0.25-29.714966l0 0c0.114014-0.655029 0.235046-1.309021 0.364014-1.960999l0 0c3.346985-16.967041 11.595001-33.158997 24.743011-46.30603l0 0 0-0.002014c3.034973-3.032959 6.231014-5.805969 9.56097-8.317993l0 0c0.555023-0.419006 1.114014-0.830994 1.676025-1.234985l0 0c8.435974-6.063049 17.682987-10.495056 27.302982-13.296082l0 0c7.054016-2.054993 14.311005-3.230957 21.596008-3.531982l0 0c1.324005-0.054016 2.649994-0.080017 3.975006-0.075989l0 0c0.662994 0.002014 1.325989 0.010986 1.988007 0.026978l0 0c2.651001 0.065002 5.298981 0.244995 7.936981 0.541992l0 0c1.977997 0.223022 3.950012 0.511047 5.912994 0.863037l0 0c4.580017 0.823975 9.109009 2.002991 13.541016 3.537964l0 0c0.634003 0.218018 1.264984 0.444031 1.894989 0.67804l0 0c8.179993 3.036987 16.007996 7.299988 23.201996 12.787048l0 0c25.400024-19.374084 58.718018-23.476074 87.471008-12.308044l0 0c0.157043 0.060974 0.310974 0.122986 0.467957 0.18396l0 0c11.160034 4.407043 21.621002 11.121094 30.648071 20.146057l0 0 0 0.002014c32.363953 32.364014 35.034973 83.171021 8.023987 118.585999l0 0c8.862976 11.621033 14.529968 24.898071 17.002014 38.639038l0 0c0.116943 0.653992 0.227966 1.309021 0.329956 1.965027l0 0c1.548035 9.843994 1.465027 19.893982-0.248962 29.714966l0 0c-0.114014 0.655029-0.235046 1.308044-0.364014 1.960999l0 0c-3.348022 16.968018-11.596008 33.158936-24.742981 46.306946l0 0c-3.035034 3.033997-6.230042 5.807007-9.56105 8.319031l0 0c-0.55603 0.419983-1.114014 0.830994-1.676025 1.234985l0 0c-8.436935 6.062012-17.681992 10.494995-27.302963 13.296021l0 0c-7.054016 2.053955-14.309998 3.231995-21.596008 3.531006l0 0c-1.240967 0.052002-2.484985 0.076965-3.72699 0.076965l0 0c-0.082977 0-0.164978 0-0.247986 0m-22.676025-64.278931c23.221008 23.251953 41.937012 42.171936 64.914978 22.700928l0 0c0.410034-0.354004 0.822021-0.704956 1.225037-1.070984l0 0c0.142029-0.127014 0.283997-0.262024 0.424988-0.393005l0 0c0.627991-0.580017 1.25-1.167969 1.859009-1.778015l0 0c0.72998-0.729004 1.433945-1.474976 2.120956-2.22998l0 0c0.210999-0.234009 0.413025-0.466003 0.61499-0.697998l0 0c0.234009-0.265015 0.458984-0.534973 0.689026-0.802979l0 0c19.598038-23.394958-0.580017-42.388977-24.463974-66.274048l0 0c-21.97699-21.97699-39.815002-40.807983-60.751007-28.406982l0 0c8.536011 11.991028 13.319 24.738037 14.985992 32.93103l0 0 -0.010986-0.002014c3.423004 15.179016 2.881989 31.069031-1.609009 46.024048m-135.256016 15.959961c0.35202 0.409973 0.702026 0.820984 1.067017 1.222961l0 0c0.122009 0.13501 0.251984 0.270996 0.376984 0.406006l0 0c0.582001 0.630981 1.174011 1.257996 1.787018 1.869995l0 0c0.730011 0.72998 1.475006 1.432983 2.230011 2.119995l0 0c0.232971 0.210999 0.465973 0.411987 0.697998 0.616028l0 0c0.264984 0.234009 0.534973 0.459961 0.802002 0.687988l0 0c23.396 19.598022 42.389988-0.578979 66.273991-24.462952l0 0c21.976013-21.976013 40.790009-39.815002 28.39502-60.748047l0 0c-11.987 8.531006-24.72702 13.315063-32.917999 14.982056l0 0c0.000977-0.004028 0.001984-0.008057 0.002991-0.010986l0 0c-15.181 3.422974-31.070007 2.881958-46.027008-1.606079l0 0c-23.255009 23.225037-42.174988 41.94104-22.687992 64.923035m6.740997-200.192993c-0.411011 0.354004-0.822998 0.704956-1.226013 1.070984l0 0c-0.140991 0.127014-0.28299 0.263-0.423981 0.393005l0 0c-0.628021 0.580017-1.25 1.169006-1.860016 1.778015l0 0c-0.729004 0.72998-1.432983 1.473999-2.119995 2.229004l0 0c-0.209991 0.233948-0.411987 0.46698-0.61499 0.699951l0 0c-0.234009 0.264038-0.460022 0.533997-0.690002 0.802002l0 0c-19.597012 23.39502 0.579987 42.389038 24.463993 66.274048l0 0c21.977997 21.97699 39.81601 40.807983 60.752014 28.406006l0 0c-8.536011-11.989014-13.318024-24.737-14.986023-32.930054l0 0c0.004028 0.001038 0.008026 0.002014 0.012024 0.003052l0 0c-3.425018-15.179993-2.882996-31.069031 1.608002-46.025024l0 0c-16.458008-16.479004-30.657013-30.78302-45.709015-30.785034l0 0c-6.186005-0.000977-12.514008 2.413025-19.205997 8.084045m126.935978 24.281982c-21.975983 21.974976-40.789978 39.812988-28.393982 60.747009l0 0c11.987-8.531006 24.72699-13.315002 32.916992-14.981995l0 0c-0.000977 0.003967-0.001984 0.007996-0.002991 0.010986l0 0c15.181-3.424011 31.069977-2.882996 46.027008 1.606018l0 0c23.25499-23.225037 42.174988-41.94104 22.68895-64.924011l0 0c-0.352966-0.40802-0.703003-0.820007-1.067993-1.221985l0 0c-0.122009-0.13501-0.252014-0.270996-0.375977-0.407043l0 0c-0.583008-0.630981-1.174973-1.255981-1.788986-1.868958l0 0c-0.729004-0.730042-1.473999-1.433044-2.229004-2.119995l0 0c-0.233032-0.210999-0.466003-0.413025-0.697998-0.615051l0 0c-0.265991-0.234985-0.536011-0.459961-0.802979-0.688965l0 0c-6.609985-5.536987-12.870056-7.898987-18.987061-7.898987l0 0c-15.532959-0.001038-30.149963 15.225952-47.28595 32.362976" id="path32"/></g></g></g></g><g id="g34"><g id="g36" clip-path="url(#clipPath38)"><g id="g42"><g id="g44"/><g id="g82"><g clip-path="url(#clipPath46)" id="g84"><g id="g86"><g clip-path="url(#clipPath50)" id="g88"><g id="g90"><g id="g92"/><g mask="url(#mask64)" id="g94"><g id="g96"><path fill="url(#linearGradient76)" d="m148.596161 634.176941l0 0c0 0-8.350006-11.121033-0.855988-25.963989 0 0-10.77301-13.343018-35.782013 1.828979 0 0 0.536987 5.713013 3.113007 14.008972 4.446991 14.321045 21.932983 19.638 33.524994 10.126038" id="path98"/></g></g></g></g></g></g></g></g><g id="g100"><g id="g102"/><g id="g140"><g clip-path="url(#clipPath104)" id="g142"><g id="g144"><g clip-path="url(#clipPath108)" id="g146"><g id="g148"><g id="g150"/><g mask="url(#mask122)" id="g152"><g id="g154"><path fill="url(#linearGradient134)" d="m144.944183 671.053955l0 0c0 0 8.350006 11.119995 0.855988 25.963013 0 0 10.774017 13.343994 35.782013-1.828979 0 0-0.536987-5.713013-3.113007-14.009033 -4.445984-14.321045-21.932007-19.638-33.524994-10.125" id="path156"/></g></g></g></g></g></g></g></g><g id="g158"><g id="g160"/><g id="g198"><g clip-path="url(#clipPath162)" id="g200"><g id="g202"><g clip-path="url(#clipPath166)" id="g204"><g id="g206"><g id="g208"/><g mask="url(#mask180)" id="g210"><g id="g212"><path fill="url(#linearGradient192)" d="m146.770172 526.003906c-3.220001 2.450989-6.397003 5.083008-9.338013 8.025024 -10.899994 10.89801-18.431 23.888-22.60498 37.677002 -1.375-1.377014-12.503021-12.496033-16.386993-15.79303 -4.141998-3.515991-10.949005-10.026001-19.324005-12.894958l28.812988-34.051086c0 0 19.359009 2.372986 38.841003 17.037048" id="path214"/></g></g></g></g></g></g></g></g><g id="g216"><g id="g218"/><g id="g256"><g clip-path="url(#clipPath220)" id="g258"><g id="g260"><g clip-path="url(#clipPath224)" id="g262"><g id="g264"><g id="g266"/><g mask="url(#mask238)" id="g268"><g id="g270"><path fill="url(#linearGradient250)" d="m273.381195 652.614929c-2.452026-3.219971-5.083008-6.396973-8.023987-9.338013 -10.90004-10.898987-23.889038-18.430969-37.67804-22.60498 1.377014-1.375 12.496033-12.502991 15.79303-16.385986 3.516968-4.143005 10.025986-10.950012 12.894928-19.325012l34.050079 28.812988c0 0-2.372009 19.359009-17.036011 38.841003" id="path272"/></g></g></g></g></g></g></g></g><g id="g274"><g id="g276"/><g id="g314"><g clip-path="url(#clipPath278)" id="g316"><g id="g318"><g clip-path="url(#clipPath282)" id="g320"><g id="g322"><g id="g324"/><g mask="url(#mask296)" id="g326"><g id="g328"><path fill="url(#linearGradient308)" d="m146.770172 779.225891c3.220001-2.452026 6.397003-5.083008 9.338013-8.023987 10.898987-10.898987 18.431976-23.889038 22.603973-37.677979 1.376007 1.377014 12.504028 12.495972 16.388 15.792969 4.141998 3.517029 10.948029 10.026001 19.324005 12.89502l-28.812988 34.050964c0 0-19.360016-2.372986-38.841003-17.036987" id="path330"/></g></g></g></g></g></g></g></g><g id="g332"><g id="g334"/><g id="g372"><g clip-path="url(#clipPath336)" id="g374"><g id="g376"><g clip-path="url(#clipPath340)" id="g378"><g id="g380"><g id="g382"/><g mask="url(#mask354)" id="g384"><g id="g386"><path fill="url(#linearGradient366)" d="m20.15921 652.614929c2.451965 3.220032 5.083008 6.397034 8.023987 9.338989 10.898983 10.899048 23.888973 18.430054 37.677979 22.604004 -1.376984 1.375-12.496006 12.503052-15.793003 16.387024 -3.516998 4.142029-10.026001 10.949036-12.894989 19.324036l-34.050991-28.814026c0 0 2.372986-19.357971 17.036957-38.840027" id="path388"/></g></g></g></g></g></g></g></g></g></g><text x="-253.229851" y="-201.974816" font-weight="normal" font-size="57.037601px" font-family="'Myriad Pro'" fill="#3a3a3a" fill-rule="nonzero" transform="matrix(1, 0, 0, -1, 224.812, 233.433)" id="text390"><tspan x="0 36.846291 54.927208 83.503044 112.07888 143.73476 155.82672 183.88922 215.54509 244.12093 262.31592 294.19995" y="0" id="tspan392">Green Energy</tspan></text><text x="-253.229851" y="-222.717647" font-weight="100" font-size="21.7834px" font-family="'Myriad Pro'" fill="#3a3a3a" fill-rule="nonzero" transform="matrix(1, 0, 0, -0.906865, 291.11, 209.668)" id="text394"><tspan x="0 17.818821 32.958282 47.269978 64.849182 80.160736 96.977516 110.74463 118.84805 133.92216 152.41628 174.33037 188.53314" y="0" id="tspan396">NATURAL POWER</tspan></text></g><rect id="svg_1" height="179.922141" width="587.74566" y="605.9541" x="190.133986" stroke-width="1.5" stroke="#000" fill="#fff"/><rect id="svg_2" height="15.993079" width="7.99654" y="426.031959" x="833.855423" stroke-width="1.5" stroke="#000" fill="#fff"/><path id="svg_3" d="m76.540558 112.858849" opacity="0.5" stroke-width="1.5" stroke="#000" fill="#fff"/></g></svg>